<svg width="633" height="169" viewBox="0 0 633 169" fill="none" xmlns="http://www.w3.org/2000/svg">
<rect y="1" width="633" height="167" fill="#570199"/>
<path d="M59.7891 88.7188L95.6484 106.508V120.289L47.5547 93.6406V83.375L95.6484 56.7969V70.5781L59.7891 88.7188ZM130.172 93.9219V134H117.305V31.625H149.93C159.445 31.625 166.922 34.4844 172.359 40.2031C177.797 45.875 180.516 53.4453 180.516 62.9141C180.516 72.7578 177.914 80.3516 172.711 85.6953C167.555 90.9922 160.266 93.7344 150.844 93.9219H130.172ZM130.172 82.8828H149.93C155.648 82.8828 160.031 81.1719 163.078 77.75C166.125 74.3281 167.648 69.4297 167.648 63.0547C167.648 56.9141 166.078 51.9922 162.938 48.2891C159.797 44.5859 155.484 42.7344 150 42.7344H130.172V82.8828ZM221.648 135.406C212.18 135.406 204.914 132.594 199.852 126.969C194.789 121.297 192.211 113 192.117 102.078V92.8672C192.117 81.5234 194.578 72.6406 199.5 66.2188C204.469 59.75 211.383 56.5156 220.242 56.5156C229.148 56.5156 235.805 59.3516 240.211 65.0234C244.617 70.6953 246.867 79.5312 246.961 91.5312V99.6875H204.492V101.445C204.492 109.602 206.016 115.531 209.062 119.234C212.156 122.938 216.586 124.789 222.352 124.789C226.008 124.789 229.219 124.109 231.984 122.75C234.797 121.344 237.422 119.141 239.859 116.141L246.328 124.016C240.938 131.609 232.711 135.406 221.648 135.406ZM220.242 67.2031C215.086 67.2031 211.266 68.9844 208.781 72.5469C206.297 76.0625 204.891 81.5469 204.562 89H234.516V87.3125C234.188 80.0938 232.875 74.9375 230.578 71.8438C228.328 68.75 224.883 67.2031 220.242 67.2031ZM259.336 92.5156C259.336 80.7969 261.516 71.8672 265.875 65.7266C270.281 59.5859 276.586 56.5156 284.789 56.5156C292.055 56.5156 297.727 59.4688 301.805 65.375V26H314.25V134H302.859L302.227 125.844C298.148 132.219 292.312 135.406 284.719 135.406C276.844 135.406 270.656 132.359 266.156 126.266C261.703 120.125 259.43 111.477 259.336 100.32V92.5156ZM271.781 99.6172C271.781 108.148 273.047 114.43 275.578 118.461C278.109 122.445 282.234 124.438 287.953 124.438C294.141 124.438 298.758 121.32 301.805 115.086V76.6953C298.617 70.6016 294.023 67.5547 288.023 67.5547C282.305 67.5547 278.18 69.5703 275.648 73.6016C273.117 77.5859 271.828 83.7266 271.781 92.0234V99.6172ZM364.805 69.5938C363.07 69.2656 361.195 69.1016 359.18 69.1016C352.805 69.1016 348.352 72.5938 345.82 79.5781V134H333.375V57.9219H345.469L345.68 65.6562C349.008 59.5625 353.719 56.5156 359.812 56.5156C361.781 56.5156 363.422 56.8438 364.734 57.5L364.805 69.5938ZM373.242 92.4453C373.242 81.3828 375.914 72.6406 381.258 66.2188C386.648 59.75 393.75 56.5156 402.562 56.5156C411.375 56.5156 418.453 59.6563 423.797 65.9375C429.188 72.2188 431.953 80.7734 432.094 91.6016V99.6172C432.094 110.633 429.422 119.352 424.078 125.773C418.734 132.195 411.609 135.406 402.703 135.406C393.891 135.406 386.812 132.289 381.469 126.055C376.172 119.82 373.43 111.383 373.242 100.742V92.4453ZM385.688 99.6172C385.688 107.445 387.211 113.609 390.258 118.109C393.352 122.562 397.5 124.789 402.703 124.789C413.672 124.789 419.32 116.867 419.648 101.023V92.4453C419.648 84.6641 418.102 78.5234 415.008 74.0234C411.914 69.4766 407.766 67.2031 402.562 67.2031C397.453 67.2031 393.352 69.4766 390.258 74.0234C387.211 78.5234 385.688 84.6406 385.688 92.375V99.6172ZM484.617 142.789H474.07L510 31.625H520.477L484.617 142.789ZM573 88.2266L534.891 70.0859V56.7266L585.516 83.3047V93.5703L534.891 120.219V106.719L573 88.2266Z" fill="white"/>
</svg>
